<svg width="359" height="169" viewBox="0 0 359 169" fill="none" xmlns="http://www.w3.org/2000/svg">
<rect y="25" width="359" height="119" fill="#070A13"/>
<path d="M22.4375 56.625C22.4375 52.5417 23.7292 49.1875 26.3125 46.5625C28.8958 43.8958 32.5833 42.3125 37.375 41.8125V78.75C31.5833 76.7917 27.6458 73.9167 25.5625 70.125C23.4792 66.3333 22.4375 61.8333 22.4375 56.625ZM56.4375 110.375C56.4375 115.167 55.2292 119.188 52.8125 122.438C50.3958 125.688 46.9583 127.729 42.5 128.562V90.4375C47.875 92.3125 51.5417 94.7917 53.5 97.875C55.4583 100.917 56.4375 105.083 56.4375 110.375ZM61.6875 64.0625C62.6458 64.3125 63.5 64.3125 64.25 64.0625C64.0833 55.8542 62.125 49.3333 58.375 44.5C54.625 39.625 49.3333 37.1875 42.5 37.1875V29.125H37.375V37.1875C34.375 37.4375 31.5208 38.0625 28.8125 39.0625C26.1458 40.0208 23.6042 41.4375 21.1875 43.3125C18.7708 45.1875 16.8333 47.7917 15.375 51.125C13.9167 54.4583 13.1875 58.3333 13.1875 62.75C13.1875 69.9167 15.2292 75.5 19.3125 79.5C23.4375 83.4583 29.4583 86.5833 37.375 88.875V128.938C31.5833 128.771 26.4792 126.604 22.0625 122.438C17.6875 118.229 14.7708 111.146 13.3125 101.188C12.3958 100.771 11.5 100.771 10.625 101.188C11.5 107.062 11.9375 112.396 11.9375 117.188C11.9375 119.062 11.8333 122.125 11.625 126.375C20.4167 131 29 133.396 37.375 133.562V141.875H42.5V133.188C49.1667 132.229 54.9792 129.312 59.9375 124.438C64.9375 119.521 67.4375 112.958 67.4375 104.75C67.4375 100.917 66.7292 97.5625 65.3125 94.6875C63.9375 91.7708 61.9167 89.3958 59.25 87.5625C56.625 85.7292 54.0417 84.2708 51.5 83.1875C49 82.1042 46 81.1042 42.5 80.1875V41.625C52.5833 42.75 58.9792 50.2292 61.6875 64.0625ZM20.25 99.5C22.125 113 26.9792 121.458 34.8125 124.875V90.8125C27.1458 88.2292 21.1875 84.7917 16.9375 80.5C12.7292 76.2083 10.625 70.2917 10.625 62.75C10.625 54.0833 12.9375 47.5 17.5625 43C22.2292 38.5 27.9792 35.7917 34.8125 34.875V26.5625H49.5625V34.75C53.6458 35.25 59.2708 37.4167 66.4375 41.25C65.3125 48.0833 65.5208 56.1875 67.0625 65.5625C64.6042 66.9375 62.0833 67.0833 59.5 66C57.5417 56.5 54.2292 50.125 49.5625 46.875V75.6875C53.2292 76.8125 56.4375 78.0417 59.1875 79.375C61.9792 80.6667 64.7083 82.4375 67.375 84.6875C70.0833 86.8958 72.1667 89.6875 73.625 93.0625C75.0833 96.4375 75.8125 100.333 75.8125 104.75C75.8125 113.208 73.2292 120.062 68.0625 125.312C62.8958 130.562 56.7292 133.917 49.5625 135.375V144.438H34.8125V136C26.8958 135.292 18.2708 132.604 8.9375 127.938C9.22917 121.521 9.375 117.938 9.375 117.188C9.375 112.896 8.85417 107.083 7.8125 99.75C8.9375 99.1667 10.9375 98.8542 13.8125 98.8125C16.7292 98.7708 18.875 99 20.25 99.5ZM53.875 110.375C53.875 104.75 52.4375 100.438 49.5625 97.4375V122.438C52.4375 119.604 53.875 115.583 53.875 110.375ZM30.75 56.625C30.75 59.9583 30.9792 62.6042 31.4375 64.5625C31.8958 66.5208 33.0208 68.2708 34.8125 69.8125V47.3125C32.1042 49.5208 30.75 52.625 30.75 56.625Z" fill="#29833D"/>
<path d="M150.875 137.125C150.542 137.292 149.292 137.417 147.125 137.5C144.958 137.583 142.208 137.667 138.875 137.75C135.542 137.833 131.75 137.875 127.5 137.875C123.333 137.958 119.083 138 114.75 138C110.417 138 106.167 138 102 138C97.8333 138 94.0833 137.958 90.75 137.875C87.4167 137.792 84.6667 137.667 82.5 137.5C80.4167 137.417 79.25 137.292 79 137.125C78.5 136.792 78.1667 136.333 78 135.75C77.8333 135.167 77.75 134.542 77.75 133.875C77.75 133.208 77.7917 132.583 77.875 132C77.9583 131.417 78.0833 131 78.25 130.75C78.3333 130.5 79.3333 130.25 81.25 130C83.25 129.75 85.8333 129.542 89 129.375C92.25 129.125 95.9167 128.875 100 128.625C104.083 128.375 108.25 128.167 112.5 128C116.833 127.833 121.083 127.708 125.25 127.625C129.417 127.458 133.167 127.333 136.5 127.25C139.917 127.167 142.75 127.167 145 127.25C147.25 127.25 148.625 127.292 149.125 127.375C149.875 127.542 150.5 128.083 151 129C151.583 129.917 151.958 130.958 152.125 132.125C152.292 133.208 152.292 134.25 152.125 135.25C151.958 136.25 151.542 136.875 150.875 137.125ZM183.125 70.125C183.292 70.375 183.542 71.5417 183.875 73.625C184.208 75.7083 184.542 78.2917 184.875 81.375C185.292 84.4583 185.667 87.7917 186 91.375C186.417 94.9583 186.792 98.375 187.125 101.625C187.542 104.875 187.875 107.792 188.125 110.375C188.375 112.958 188.583 114.708 188.75 115.625C189 117.125 189.292 118.792 189.625 120.625C189.958 122.375 190.25 124.083 190.5 125.75C190.75 127.333 190.917 128.708 191 129.875C191.167 131.042 191.125 131.75 190.875 132C190.708 132.25 190.042 132.333 188.875 132.25C187.708 132.083 186.417 131.833 185 131.5C183.667 131.083 182.375 130.625 181.125 130.125C179.958 129.542 179.208 129 178.875 128.5C178.542 128.083 178.208 127.458 177.875 126.625C177.625 125.792 177.292 124.333 176.875 122.25C175.958 123.5 174.958 124.833 173.875 126.25C172.875 127.583 171.875 128.833 170.875 130C169.875 131.083 168.958 131.958 168.125 132.625C167.292 133.292 166.667 133.625 166.25 133.625C165.583 133.625 164.583 132.958 163.25 131.625C161.917 130.208 160.583 128.625 159.25 126.875C157.917 125.125 156.708 123.458 155.625 121.875C154.542 120.292 153.958 119.25 153.875 118.75C153.708 118.25 153.625 116.875 153.625 114.625C153.708 112.375 153.792 109.875 153.875 107.125C154.042 104.292 154.208 101.5 154.375 98.75C154.542 95.9167 154.708 93.6667 154.875 92C155.042 90.3333 155.208 88.5 155.375 86.5C155.625 84.4167 155.875 82.5 156.125 80.75C156.375 78.9167 156.583 77.3333 156.75 76C157 74.6667 157.208 73.875 157.375 73.625C157.542 73.375 158 73.25 158.75 73.25C159.583 73.1667 160.417 73.2083 161.25 73.375C162.167 73.4583 163 73.6667 163.75 74C164.5 74.25 165 74.5833 165.25 75C165.417 75.3333 165.5 76.4167 165.5 78.25C165.583 80 165.625 82.1667 165.625 84.75C165.625 87.25 165.625 90 165.625 93C165.625 95.9167 165.583 98.6667 165.5 101.25C165.5 103.75 165.458 105.917 165.375 107.75C165.375 109.5 165.375 110.542 165.375 110.875C165.375 111.542 165.75 112.833 166.5 114.75C167.333 116.667 168.167 118.5 169 120.25L175.5 112.5C175.417 111 175.333 109.083 175.25 106.75C175.25 104.417 175.208 101.958 175.125 99.375C175.042 96.7917 174.958 94.1667 174.875 91.5C174.792 88.8333 174.75 86.4167 174.75 84.25C174.75 82.0833 174.75 80.2917 174.75 78.875C174.75 77.4583 174.792 76.625 174.875 76.375C175.125 75.875 175.625 75.2083 176.375 74.375C177.125 73.5417 177.958 72.75 178.875 72C179.792 71.25 180.625 70.6667 181.375 70.25C182.208 69.8333 182.792 69.7917 183.125 70.125ZM230.875 54.25C231.125 56.25 231.208 60.25 231.125 66.25C231.125 68.8333 231.042 71.9583 230.875 75.625C230.792 79.2917 230.625 83.7083 230.375 88.875C230.125 93.9583 229.792 99.875 229.375 106.625C229.042 113.292 228.583 120.875 228 129.375C227.833 130.208 227.458 131.125 226.875 132.125C226.375 133.125 225.792 134.042 225.125 134.875C224.458 135.708 223.75 136.417 223 137C222.25 137.5 221.583 137.667 221 137.5C220.833 137.417 220.625 136.75 220.375 135.5C220.208 134.25 220.042 132.5 219.875 130.25C216.125 131.917 212.583 133.042 209.25 133.625C205.917 134.208 203.208 133.833 201.125 132.5C200.292 132 199.458 131.125 198.625 129.875C197.875 128.542 197.167 127 196.5 125.25C195.833 123.5 195.292 121.667 194.875 119.75C194.458 117.75 194.25 115.875 194.25 114.125C194.25 112.875 194.333 111.208 194.5 109.125C194.667 107.042 194.875 104.792 195.125 102.375C195.375 99.875 195.667 97.375 196 94.875C196.333 92.2917 196.667 89.9167 197 87.75C197.333 85.5833 197.625 83.75 197.875 82.25C198.125 80.75 198.333 79.8333 198.5 79.5C198.667 78.5 198.958 77.6667 199.375 77C199.875 76.3333 200.292 75.8333 200.625 75.5C201.458 74.8333 202.667 74.3333 204.25 74C205.917 73.6667 207.625 73.4583 209.375 73.375C211.208 73.2917 212.917 73.3333 214.5 73.5C216.083 73.5833 217.25 73.75 218 74H218.25C218.083 63.6667 218.083 55.7083 218.25 50.125C218.417 44.5417 218.75 41.5417 219.25 41.125C219.583 40.875 220.333 41.0833 221.5 41.75C222.667 42.4167 223.875 43.375 225.125 44.625C226.458 45.875 227.667 47.375 228.75 49.125C229.917 50.7917 230.625 52.5 230.875 54.25ZM211.875 124.25C213.042 124 214.083 123.708 215 123.375C216 122.958 216.833 122.583 217.5 122.25C218.25 121.917 218.875 121.5 219.375 121C219.292 118.833 219.208 116.417 219.125 113.75C219.042 111 218.958 108.167 218.875 105.25C218.792 102.333 218.708 99.375 218.625 96.375C218.542 93.2917 218.458 90.3333 218.375 87.5C218.375 86.5833 218.208 85.7917 217.875 85.125C217.625 84.4583 217.292 83.9167 216.875 83.5C216.625 83.3333 216.125 83.125 215.375 82.875C214.625 82.5417 213.75 82.2917 212.75 82.125C211.833 81.875 210.917 81.75 210 81.75C209.167 81.75 208.583 81.9167 208.25 82.25C208.083 82.3333 207.917 83.1667 207.75 84.75C207.667 86.25 207.542 88.1667 207.375 90.5C207.292 92.75 207.167 95.2083 207 97.875C206.917 100.542 206.833 103.042 206.75 105.375C206.667 107.708 206.583 109.708 206.5 111.375C206.417 113.042 206.375 113.958 206.375 114.125C206.375 115.542 206.542 116.875 206.875 118.125C207.292 119.375 207.792 120.5 208.375 121.5C208.958 122.417 209.583 123.167 210.25 123.75C210.917 124.25 211.458 124.417 211.875 124.25ZM264.875 68.625C265.458 69.125 266 70.0833 266.5 71.5C267.083 72.9167 267.583 74.625 268 76.625C268.417 78.625 268.792 80.7917 269.125 83.125C269.458 85.4583 269.75 87.75 270 90C270.25 92.25 270.417 94.375 270.5 96.375C270.667 98.2917 270.792 99.875 270.875 101.125C270.958 102.625 271 104.208 271 105.875C271.083 107.458 271.083 109 271 110.5C271 111.917 270.917 113.208 270.75 114.375C270.667 115.542 270.5 116.417 270.25 117C269.75 118.25 268.875 119.125 267.625 119.625C266.458 120.042 265.125 120.333 263.625 120.5C262.875 120.583 261.583 120.625 259.75 120.625C258 120.542 256.083 120.458 254 120.375C252 120.208 250.083 120.042 248.25 119.875C246.417 119.708 245.042 119.542 244.125 119.375C242.292 118.958 240.958 118.417 240.125 117.75C239.375 117.083 238.625 116.125 237.875 114.875C237.625 114.375 237.417 113.125 237.25 111.125C237.083 109.042 236.958 106.583 236.875 103.75C236.875 100.833 236.917 97.7083 237 94.375C237.083 91.0417 237.208 87.875 237.375 84.875C237.625 81.875 237.875 79.25 238.125 77C238.458 74.75 238.875 73.25 239.375 72.5C240.208 71.3333 241.625 70.25 243.625 69.25C245.708 68.25 247.583 67.4583 249.25 66.875C250.083 66.625 251.167 66.4583 252.5 66.375C253.917 66.2083 255.375 66.2083 256.875 66.375C258.458 66.4583 259.958 66.7083 261.375 67.125C262.792 67.4583 263.958 67.9583 264.875 68.625ZM257.875 107.375C258.042 107.042 258.208 106.042 258.375 104.375C258.625 102.625 258.792 100.542 258.875 98.125C259.042 95.7083 259.125 93.125 259.125 90.375C259.208 87.625 259.25 85.0833 259.25 82.75C259.25 80.4167 259.167 78.4583 259 76.875C258.833 75.2083 258.625 74.25 258.375 74C257.958 73.6667 257.333 73.5417 256.5 73.625C255.75 73.625 254.958 73.75 254.125 74C253.292 74.1667 252.542 74.4167 251.875 74.75C251.208 75 250.75 75.25 250.5 75.5C249.417 76.4167 248.833 77.9167 248.75 80C248.75 80.5833 248.667 82.25 248.5 85C248.417 87.6667 248.375 90.5833 248.375 93.75C248.375 96.8333 248.417 99.7083 248.5 102.375C248.667 105.042 248.958 106.667 249.375 107.25C249.792 107.833 250.375 108.292 251.125 108.625C251.958 108.875 252.792 109 253.625 109C254.542 109 255.375 108.875 256.125 108.625C256.958 108.292 257.542 107.875 257.875 107.375ZM287.125 100.875C288.458 100.375 289.958 99.8333 291.625 99.25C293.375 98.5833 295.042 98 296.625 97.5C298.208 96.9167 299.625 96.4167 300.875 96C302.125 95.5833 303.042 95.25 303.625 95C303.542 94.0833 303.417 93.0417 303.25 91.875C303.167 90.625 303.042 89.4583 302.875 88.375C302.708 87.2083 302.5 86.2083 302.25 85.375C302 84.5417 301.75 84.0417 301.5 83.875C300.833 83.625 299.708 83.4167 298.125 83.25C296.625 83 295.042 83.0417 293.375 83.375C291.792 83.7083 290.333 84.3333 289 85.25C287.667 86.1667 286.917 87.625 286.75 89.625C286.583 90.9583 286.542 92.625 286.625 94.625C286.708 96.625 286.875 98.7083 287.125 100.875ZM314.25 102.875C314.167 103.042 313.167 103.375 311.25 103.875C309.333 104.375 307.042 104.917 304.375 105.5C301.708 106 298.875 106.542 295.875 107.125C292.875 107.625 290.292 108.042 288.125 108.375C288.542 111.708 289.042 114.708 289.625 117.375C290.208 119.958 290.708 121.583 291.125 122.25C291.542 122.833 292.083 123.375 292.75 123.875C293.333 124.292 294.042 124.708 294.875 125.125C295.792 125.458 296.875 125.708 298.125 125.875C299.042 126.125 299.917 125.792 300.75 124.875C301.417 124.042 302 122.583 302.5 120.5C303.083 118.417 303.375 115.125 303.375 110.625C305.958 110.208 307.958 109.958 309.375 109.875C310.875 109.792 311.958 109.792 312.625 109.875C313.458 109.958 313.958 110.083 314.125 110.25C314.208 110.5 314.208 111.125 314.125 112.125C314.042 113.125 313.833 114.375 313.5 115.875C313.25 117.292 312.917 118.875 312.5 120.625C312.167 122.292 311.75 123.917 311.25 125.5C310.75 127 310.208 128.375 309.625 129.625C309.042 130.792 308.417 131.625 307.75 132.125C305.75 133.625 303.25 134.375 300.25 134.375C297.25 134.292 294.292 133.875 291.375 133.125C288.458 132.292 285.833 131.333 283.5 130.25C281.167 129.083 279.708 128.125 279.125 127.375C278.708 126.875 278.333 125.625 278 123.625C277.667 121.542 277.375 119.042 277.125 116.125C276.958 113.208 276.833 110 276.75 106.5C276.667 103 276.708 99.5833 276.875 96.25C277.125 92.9167 277.458 89.8333 277.875 87C278.375 84.1667 279.042 81.875 279.875 80.125C281.125 77.625 283.167 75.5833 286 74C288.833 72.4167 291.833 71.3333 295 70.75C298.167 70.1667 301.167 70.0833 304 70.5C306.917 70.9167 309.083 71.8333 310.5 73.25C311.333 74.0833 312.083 75.75 312.75 78.25C313.417 80.6667 313.833 83.625 314 87.125C314 87.4583 314.042 88.4167 314.125 90C314.208 91.5833 314.25 93.2917 314.25 95.125C314.333 96.875 314.375 98.5417 314.375 100.125C314.375 101.708 314.333 102.625 314.25 102.875ZM349.5 68.875C350.167 69.2917 350.792 70.125 351.375 71.375C352.042 72.5417 352.625 73.9167 353.125 75.5C353.708 77 354.167 78.625 354.5 80.375C354.917 82.125 355.25 83.75 355.5 85.25C355.833 86.75 356.042 88.0417 356.125 89.125C356.208 90.125 356.208 90.75 356.125 91C355.958 91.3333 355.458 91.6667 354.625 92C353.875 92.3333 352.75 92.7083 351.25 93.125C349.75 93.5417 347.667 94 345 94.5C344.833 89.9167 344.5 86.4583 344 84.125C343.5 81.7083 342.958 80 342.375 79C341.708 77.8333 341 77.25 340.25 77.25C339.5 77.5833 338.833 78 338.25 78.5C337.667 78.9167 337.167 79.375 336.75 79.875C336.25 80.4583 335.792 81.0833 335.375 81.75C335.208 82 335.042 82.5833 334.875 83.5C334.708 84.4167 334.542 85.7917 334.375 87.625C334.375 88.2083 334.333 89.4167 334.25 91.25C334.25 93.0833 334.208 95.2083 334.125 97.625C334.125 100.042 334.083 102.583 334 105.25C334 107.917 333.958 110.417 333.875 112.75C333.875 115 333.833 116.917 333.75 118.5C333.75 120.083 333.708 121 333.625 121.25C333.458 121.667 333.042 122.25 332.375 123C331.708 123.75 330.958 124.458 330.125 125.125C329.292 125.708 328.5 126.208 327.75 126.625C327 126.958 326.5 126.917 326.25 126.5C326 126.25 325.75 125.167 325.5 123.25C325.25 121.333 324.958 119 324.625 116.25C324.375 113.417 324.083 110.333 323.75 107C323.417 103.667 323.125 100.458 322.875 97.375C322.625 94.2917 322.417 91.5417 322.25 89.125C322.083 86.625 321.958 84.8333 321.875 83.75C321.792 82.1667 321.708 80.4167 321.625 78.5C321.542 76.5833 321.458 74.7917 321.375 73.125C321.375 71.375 321.375 69.875 321.375 68.625C321.458 67.2917 321.625 66.5 321.875 66.25C322.042 66 322.583 65.9583 323.5 66.125C324.5 66.2083 325.542 66.4583 326.625 66.875C327.792 67.2083 328.875 67.6667 329.875 68.25C330.875 68.8333 331.542 69.375 331.875 69.875C332.125 70.2917 332.375 70.9167 332.625 71.75C334.208 70.9167 335.708 70.1667 337.125 69.5C338.625 68.75 340.042 68.2083 341.375 67.875C342.792 67.5417 344.167 67.4583 345.5 67.625C346.833 67.7083 348.167 68.125 349.5 68.875Z" fill="#29833D"/>
</svg>

